<svg id="Layer_1" data-name="Layer 1" xmlns="http://www.w3.org/2000/svg" xmlns:xlink="http://www.w3.org/1999/xlink" viewBox="0 0 1500 1000"><defs><style>.cls-1{fill:none;}.cls-2{clip-path:url(#clip-path);}.cls-3{fill:#bc2025;}.cls-4{fill:#e3dedb;fill-opacity:0;stroke-opacity:0;stroke-width:1.18px;}.cls-4,.cls-9{stroke:#fff;stroke-linecap:round;stroke-linejoin:round;}.cls-5{fill:#f47216;}.cls-6{fill:#007216;fill-opacity:0.93;}.cls-10,.cls-7,.cls-9{fill:#008;}.cls-7,.cls-8{fill-rule:evenodd;}.cls-8{fill:#fff;}.cls-9{stroke-width:2.04px;}</style><clipPath id="clip-path"><circle class="cls-1" cx="750" cy="500" r="331"/></clipPath></defs><title>Bharatiya Janata Party</title><g class="cls-2"><rect class="cls-3" x="159.41" y="47.61" width="1096.16" height="849.31"/><path id="path55195" class="cls-4" d="M592,499.36V159.05h706.13V839.66H592ZM902.15,782.28c5.71-3.41,8.38-9.22,6.15-13.39-1.47-2.74-1.22-3,3.31-3a26,26,0,0,0,7.14-.87c1.75-.67,2.24.11,2.24,3.55,0,5.56,4,9.63,10.71,10.89,7.24,1.36,30.57,0,34.35-2.06,2.49-1.33,4.78-1.2,11.17.66,10.64,3.09,38,2.22,47-1.49,8.75-3.63,11.6-10.93,6.47-16.6-2.22-2.46-2.11-2.59,2.2-2.59a22.66,22.66,0,0,0,8.71-2.15c7.36-3.81,7.38-14.59,0-18.81-3.45-2-3.95-3-3.34-6.8a14.17,14.17,0,0,0-1-7.62c-5.13-9.59-32.57-11.58-43.93-3.18-3.7,2.74-3.76,2.74-7.16,0-3-2.41-4.71-2.64-13.27-1.78s-9.72.68-9-1.14c7.28-19,10.78-40.21,12.24-74.38,1.1-25.41,1.43-27.78,5-35,4.35-8.89,10.59-14.87,21-20.16l7.32-3.71,9.72,2.35c5.62,1.35,15.61,2.35,23.72,2.36,22.23,0,37.33-6.08,59.74-24.13,8.83-7.11,21-12.86,27.27-12.86,1.77,0,6.31,2,10.08,4.35,8.77,5.57,12.82,4.86,14.89-2.59,4.2-15.14-.42-31.12-13-45l-6.43-7.08,7.89-8.52c14.11-15.22,26.42-36.33,33.77-57.87,7.58-22.24,9.13-44.77,6.21-90.48-1.14-17.85-1-24.42.63-33.85,2.54-14.51,12-34.08,22.06-45.85,3.9-4.55,7.09-9.45,7.09-10.89,0-3.49-6.1-8.11-13.3-10.08-8.21-2.24-30.66-.63-42.7,3.07-22.07,6.78-44.54,21.66-60.26,39.89l-9.22,10.68-.43-7.63c-.52-9.36,2.47-21.48,9.13-37,5.88-13.68,5.54-14.79-5.39-17.42-24-5.76-60.93,12.49-87.89,43.45-4,4.6-7.67,8.52-8.14,8.71s-2-2.5-3.47-6c-3.74-9.08-21.49-39.82-28.06-48.59-8.92-11.89-10.17-11.28-25.9,12.76-7.28,11.11-17.4,27.72-22.49,36.91l-9.25,16.7-6.39-8.9c-12.37-17.27-35-36.42-52.66-44.49-11-5-28.36-9.08-39-9.08-10.14,0-19,3.26-19.7,7.27-.23,1.28,2.48,6.47,6,11.55,8.45,12.09,14.69,25.6,15.87,34.38l1,7.06-12-12.21c-25.52-25.85-54.66-40.27-84.82-42-14.77-.83-23,.69-28.89,5.36-4.83,3.8-4.71,7.46.46,14,6.51,8.22,15.46,25.75,20.06,39.28,5.87,17.26,8.16,32.42,9.7,64.32,1.93,40,7.32,63.09,20.92,89.62,10.47,20.43,23.93,36.28,37.3,43.92l5,2.84-10,10.15c-5.49,5.58-11.44,13.28-13.23,17.11-4,8.58-4.46,19.61-1.1,26,2.82,5.38,6,5.82,12.59,1.78,9.37-5.72,24.14-2.37,41.51,9.42,11.88,8.07,24.25,14.09,34.35,16.7,10.55,2.74,28.94,2.89,37.51.31l6.37-1.92,12.85,7.95c7.07,4.37,14.27,9.22,16,10.78,5.36,4.84,11.17,16.55,13.59,27.39,2.94,13.2,2.16,41.9-1.53,56-3.48,13.26-13.41,32.76-17,33.46-1.56.3-10.59-.25-20.06-1.24-20.89-2.16-29.21-.75-36.63,6.25-8.8,8.3-8.32,18,1.12,22.61,5,2.43,5.22,2.82,3.18,5.07-3.07,3.4-2.76,9.46.6,11.82,2.73,1.91,2.69,2.05-1.42,5.08-5.29,3.92-5.64,9.72-.86,14.21,5.06,4.75,10.09,5.78,26.42,5.41,11.71-.27,15.86-.92,19.43-3.06Z"/><rect id="rect2380" class="cls-5" x="651.63" y="159.05" width="555.25" height="681.89"/><rect id="rect11100" class="cls-6" x="404.12" y="159.05" width="247.51" height="681.89"/><g id="g11627"><g id="g11625"><path id="path11603" class="cls-7" d="M812.13,658.55a55,55,0,0,1-13.88-1.46q-5.44-1.46-5.45-4,0-3.63,4-6.36a17.5,17.5,0,0,1,10-2.73,64.56,64.56,0,0,1,8.78.91,66.25,66.25,0,0,0,8.78.91h7a61.42,61.42,0,0,0,10.37-20.21,84.48,84.48,0,0,0,3.69-25.3,61.32,61.32,0,0,0-3.69-22q-3.69-9.64-10.37-14.38-16.51-9.82-17.57-10.92a26.32,26.32,0,0,1-6.67,2.73,29.15,29.15,0,0,1-7.38.91,50.17,50.17,0,0,1-16.16-2.73,56.13,56.13,0,0,1-15.46-8.19,54.48,54.48,0,0,0-12-6.73,29.8,29.8,0,0,0-10.89-2.37,16.8,16.8,0,0,0-5.45.91,19.25,19.25,0,0,0-5.09,2.73,30.12,30.12,0,0,1-1.23-2.91,7.69,7.69,0,0,1-.53-2.55q0-6.91,5.62-14.19a54,54,0,0,1,15.46-13.11q-19.67-7.28-31.79-31.85T710.23,418.3a115.93,115.93,0,0,0-5.44-36,92.65,92.65,0,0,0-15.64-29.48,14,14,0,0,1,5.27-2.73,25.26,25.26,0,0,1,7-.91q18.62,0,36.37,10.56t30.39,29.48A47.25,47.25,0,0,0,770,378.26q0-6.56-3.68-14.56a80.77,80.77,0,0,0-10.37-16.38,18.75,18.75,0,0,1,3.16-1.27,12.79,12.79,0,0,1,3.87-.55q17.91,0,35,11.65t28.28,32q9.14-20.39,29.87-51Q867.29,352,880.64,381.9a101.47,101.47,0,0,1,24.25-25.66q13.7-10,28.45-12.56a27.08,27.08,0,0,1,5.45.54c1.76.37,3.46.79,5.09,1.28a80.07,80.07,0,0,0-6.5,15.11,48,48,0,0,0-2.28,14A67.18,67.18,0,0,0,936.86,391a86.32,86.32,0,0,1,28.28-30.58q17.4-11.28,36.72-11.28a25.31,25.31,0,0,1,7,.91,13.83,13.83,0,0,1,5.26,2.73,72.45,72.45,0,0,0-14.23,20.93,55.77,55.77,0,0,0-5.09,22.75q0,6.56.88,19.11t.88,19.11a94.48,94.48,0,0,1-8.78,39.86,97.31,97.31,0,0,1-24.6,32.94,45,45,0,0,1,11.59,12.2A24.93,24.93,0,0,1,979,533a25.85,25.85,0,0,1-1.76,7.28q-7.38-5.46-10.54-5.46a26.49,26.49,0,0,0-10.89,2.73,46.92,46.92,0,0,0-12,8.19,52,52,0,0,1-15.28,9.47,44.12,44.12,0,0,1-16.34,3.27,61.38,61.38,0,0,1-11.42-.91,25.12,25.12,0,0,1-7.9-2.73,33,33,0,0,0-19,10.38,27.2,27.2,0,0,0-7.38,18.74q0,23.67-3.16,40t-9.14,23.66l17.57-1.81a3.33,3.33,0,0,1,2.46,1.09,3.54,3.54,0,0,1,1,2.55,6.48,6.48,0,0,1-2.63,5.09,9.34,9.34,0,0,1-6.15,2.19h-12.3q-2.12,0-4.57-2.55a22.14,22.14,0,0,1-4.21-6.56q6-6.18,9.13-21.83t3.16-38.23a3.06,3.06,0,0,0-1.58-2.54,6.31,6.31,0,0,0-3.69-1.1v12.74q0,32-9.84,47t-30.56,14.93"/><path id="path11605" class="cls-8" d="M935.1,509.3q19,0,35-22.93t16-49.87q0-6.56-.88-19.11t-.88-19.11a59.27,59.27,0,0,1,4-21.66,55,55,0,0,1,11.77-18.38q-17.93,0-34.08,12.38t-25.65,33.12q7,27.3,7,47.32a84.87,84.87,0,0,1-6,32.22,62.57,62.57,0,0,1-16.86,24.2c1.64.49,3.34.91,5.09,1.28a27.15,27.15,0,0,0,5.45.54"/><path id="path11607" class="cls-8" d="M889.42,514.76q20.73-1.82,35-18.56t14.23-39.68q0-26.94-5.27-41.86-7-27.3-7-36.4a46.49,46.49,0,0,1,1.4-11.65,48.16,48.16,0,0,1,3.87-10.19q-13,1.09-25.13,10.37A78.75,78.75,0,0,0,885.91,391a177.28,177.28,0,0,1,15.64,38.4A150,150,0,0,1,907,469.26q0,9.47-4.57,21.12a131.07,131.07,0,0,1-13,24.38"/><path id="path11609" class="cls-8" d="M773.48,502A30,30,0,0,0,784,500.2q-10.89-11.28-16.87-29.85a133.79,133.79,0,0,1-6-41.13q0-10.19,3.51-30.94-12.29-17.83-28.46-28t-33-10.19q8.43,10.56,13,28.76T720.77,431q0,26.2,16.52,48.6T773.48,502"/><path id="path11611" class="cls-8" d="M819.15,511.12a66.09,66.09,0,0,1-11.77-22.57,96,96,0,0,1-4-28.39,107.37,107.37,0,0,1,4-27.48,226.08,226.08,0,0,1,11.77-32.58q-10.89-19.29-23.71-31.3T770,354.6a28.94,28.94,0,0,1,6.5,11.46,51.4,51.4,0,0,1,2.29,15.84q0,8.37-3.52,21.84-3.51,9.83-3.51,30.94,0,28,13.18,49.32t34.25,27.12"/><path id="path11613" class="cls-8" d="M856.05,518.4q16.86,0,28.63-14.92t11.77-36q0-25.11-10.36-53.51t-30-57.51q-21.43,31.66-32.68,59.7t-11.24,49.5q0,21.84,12.82,37.31t31.1,15.47"/><path id="path11615" class="cls-8" d="M914,549.34a31,31,0,0,0,12.3-2.73,44.51,44.51,0,0,0,12.29-8.19,54.23,54.23,0,0,1,14.76-9.1q7.38-2.91,13.35-1.82a22.34,22.34,0,0,0-6-9.28,12.06,12.06,0,0,0-8.08-3.46q-19.68,5.46-24.6,5.46-10.89,0-15.81-1.82a29.58,29.58,0,0,0-7.37.91,27,27,0,0,0-6.68,2.73,15.16,15.16,0,0,1,2.63,4.92,19.37,19.37,0,0,1,.88,6,35.7,35.7,0,0,1-.88,8.38,18.34,18.34,0,0,1-2.63,6.18,45.43,45.43,0,0,0,6.32,1.28,70.22,70.22,0,0,0,9.49.54"/><path id="path11617" class="cls-8" d="M799.83,547.52a30,30,0,0,0,10.54-1.82q-1.75-5.09-1.76-14.56a12,12,0,0,1,1.76-5.09,51.4,51.4,0,0,1,5.27-7.65,75.66,75.66,0,0,1-22.84-9.1,60.67,60.67,0,0,1-9.66,2.73,50.85,50.85,0,0,1-9.66.91q1,0-8.79-1.82a52.14,52.14,0,0,0-13,8.74q-4.92,4.73-6.32,9.46,5.63-2.18,13.17.18a41.4,41.4,0,0,1,14.94,8.92,48.15,48.15,0,0,0,12.82,6.74,41.21,41.21,0,0,0,13.53,2.36"/><path id="path11619" class="cls-8" d="M856.05,573c1.4,0,2.92-.84,4.56-2.54a22.15,22.15,0,0,0,4.22-6.56,16.58,16.58,0,0,1,4.74-6.73,34.3,34.3,0,0,1,9.31-6,20.28,20.28,0,0,0,10.19-6.37,15.1,15.1,0,0,0,3.87-10A15.82,15.82,0,0,0,891,527a11.19,11.19,0,0,0-5.1-4.92,79,79,0,0,1-28.11,5.46A88.51,88.51,0,0,1,826.18,522a10.84,10.84,0,0,0-5.09,5.46,20.68,20.68,0,0,0-1.94,9.1,15.13,15.13,0,0,0,2.29,7.83,21.81,21.81,0,0,0,6.5,6.73q14.05,8.39,17.57,14.56a15.06,15.06,0,0,0,4.56,5.28,10.11,10.11,0,0,0,6,2"/><path id="path11621" class="cls-8" d="M815.91,653.23a6.09,6.09,0,0,0,3.93-1.35,4.1,4.1,0,0,0,1.69-3.3,8.19,8.19,0,0,1-3.18,1.16,23.11,23.11,0,0,1-4.31.39H802.82a1.35,1.35,0,0,0-1.5,1.55c0,1,.5,1.55,1.5,1.55h13.09"/><path id="path11623" class="cls-7" d="M817.4,670.56a41.89,41.89,0,0,1-8.79-1.46,41.64,41.64,0,0,0-8.78-1.45,1.67,1.67,0,0,1-1.23-.55,1.78,1.78,0,0,1-.53-1.27q0-1.46,2.64-2.55a15.9,15.9,0,0,1,6.15-1.09,17,17,0,0,1,4.39.91,17.31,17.31,0,0,0,4.39.91,30.81,30.81,0,0,0,8.78-1.82,30.58,30.58,0,0,1,8.79-1.82,6.34,6.34,0,0,1,3.69,1.09,3.1,3.1,0,0,1,1.58,2.55c0,1.45-.88,2.73-2.64,3.82a11.39,11.39,0,0,1-6.15,1.63,51,51,0,0,0-6.15.55,48.75,48.75,0,0,1-6.14.55Zm-7,11.65a33.34,33.34,0,0,1-10.19-1.28c-2.58-.85-3.86-2-3.86-3.46,0-1,.87-1.81,2.63-2.54a16,16,0,0,1,6.15-1.1h12.3a12.48,12.48,0,0,1,4.92.91q2.1.91,2.1,2,0,2.55-3.86,4a29.5,29.5,0,0,1-10.19,1.46ZM849,678.57a26.26,26.26,0,0,1-7.73-.91c-1.88-.61-2.81-1.52-2.81-2.73a3.08,3.08,0,0,1,1.58-2.55,6.3,6.3,0,0,1,3.69-1.09,17.31,17.31,0,0,0,4.39-.91,10.93,10.93,0,0,1,8.78,0,17.45,17.45,0,0,0,4.4.91,3.66,3.66,0,0,1,2.46.91,2.62,2.62,0,0,1,1.05,2q0,2.19-4.57,3.27a49,49,0,0,1-11.24,1.1Zm8.78-10.92a29.93,29.93,0,0,1-8.78-1.1q-3.51-1.08-3.51-2.54a4.79,4.79,0,0,1,2.1-3.83,7.81,7.81,0,0,1,4.92-1.63h15.81a6.3,6.3,0,0,1,3.69,1.09,3.08,3.08,0,0,1,1.58,2.55c0,1.69-1.46,3-4.39,4a37.08,37.08,0,0,1-11.42,1.46Zm24.6,10.92a46.37,46.37,0,0,1-10.19-.91q-3.87-.92-3.87-2.73t3.17-3.28a17.43,17.43,0,0,1,7.37-1.46l15.82-.73a10.49,10.49,0,0,1,4.91,1.1c1.41.73,2.11,1.57,2.11,2.55,0,1.69-1.75,3-5.27,4a54.58,54.58,0,0,1-14.05,1.46ZM891.18,664c-5.86,0-8.78-.61-8.78-1.82a4.79,4.79,0,0,1,2.1-3.83,7.81,7.81,0,0,1,4.92-1.63h15.82a6.29,6.29,0,0,1,3.68,1.09,3.1,3.1,0,0,1,1.59,2.55,3.54,3.54,0,0,1-1.06,2.54A3.31,3.31,0,0,1,907,664Zm-3.51-10.93a10.53,10.53,0,0,1-4.92-1.09c-1.41-.72-2.11-1.57-2.11-2.54q0-2.55,3.86-4A29.58,29.58,0,0,1,894.7,644a17,17,0,0,1,7.72,1.45q2.82,1.45,2.82,4a3,3,0,0,1-1.41,2.72,7,7,0,0,1-3.86.91h-12.3"/></g></g><g id="text78491"><path id="path22244" class="cls-9" d="M571.42,292.8H556.49v95.52H544.84V348.45H507.53v10.16a13.49,13.49,0,0,1-.22,2.28,6.27,6.27,0,0,1-.71,2.27,4.84,4.84,0,0,1-1.42,1.71,3.61,3.61,0,0,1-2.2.64,10,10,0,0,1-3.91-1,32.57,32.57,0,0,1-4.62-2.77,57.05,57.05,0,0,1-4.69-4,46.89,46.89,0,0,1-4.12-4.69,28.9,28.9,0,0,1-2.92-4.83,10.72,10.72,0,0,1-1.13-4.48,4.74,4.74,0,0,1,2.13-4.33,10.26,10.26,0,0,1,5.61-1.36h6.9v-39a8,8,0,0,0-1.78-5.62,5.78,5.78,0,0,0-4.48-2,6.63,6.63,0,0,0-5,2.21,8,8,0,0,0-2,5.61,9.94,9.94,0,0,0,.14,1.57,7.9,7.9,0,0,0,.71,2.13,18,18,0,0,0,1.7,2.63,23.74,23.74,0,0,0,3.06,3l-6.32,7.75a22,22,0,0,1-5.33-3.91,19,19,0,0,1-3.2-4.48,17.69,17.69,0,0,1-1.57-4.4,21.77,21.77,0,0,1-.42-4.05,20.37,20.37,0,0,1,1.13-6.68,18.09,18.09,0,0,1,3.56-6,17.29,17.29,0,0,1,5.83-4.34,19.48,19.48,0,0,1,8.24-1.63,18.66,18.66,0,0,1,7.32,1.35,13.77,13.77,0,0,1,5.33,3.91,15.73,15.73,0,0,1,3.27,6,25,25,0,0,1,1.14,7.81v38h37.31V282.36h26.58Z"/><path id="path22246" class="cls-9" d="M609.22,292.8H594.3v95.52H582.64V292.8h-16.2V282.36h42.78Z"/><path id="path22248" class="cls-9" d="M622.66,375.24a6.85,6.85,0,0,1,4.9,2,6.54,6.54,0,0,1,2.13,5,7,7,0,0,1-7,7,6.69,6.69,0,0,1-4.91-2.06,7,7,0,0,1,4.91-11.94Z"/><path id="path22250" class="cls-9" d="M609.22,456.1H594.3v95.51H582.64V489.93H559.76l-.07.28c.57.66,1.42,1.68,2.56,3.06a32.57,32.57,0,0,1,3.41,5,35.91,35.91,0,0,1,3,6.68,24.19,24.19,0,0,1,1.28,8,25.73,25.73,0,0,1-1.49,8.6,22.93,22.93,0,0,1-4.33,7.6,21.26,21.26,0,0,1-7.25,5.41,24,24,0,0,1-10.24,2.06,27.73,27.73,0,0,1-10.59-2,34.52,34.52,0,0,1-8.74-5.48,43.34,43.34,0,0,1-7-7.88,75.08,75.08,0,0,1-5.62-9.46,109.48,109.48,0,0,1-4.26-10.16c-1.19-3.46-2.2-6.75-3.06-9.88s-1.54-6.09-2.06-8.74-.92-4.85-1.21-6.61l10.52-2.06a153.56,153.56,0,0,0,5.69,22.46,79.44,79.44,0,0,0,7.53,16.06,33.33,33.33,0,0,0,8.88,9.74,17.6,17.6,0,0,0,10,3.19,11.08,11.08,0,0,0,6-1.42,11.59,11.59,0,0,0,3.56-3.55,13.29,13.29,0,0,0,1.7-4.34,18.72,18.72,0,0,0,.5-3.9,17.77,17.77,0,0,0-1.21-6.19,26.68,26.68,0,0,0-3.41-6.61,34.59,34.59,0,0,0-5.54-6.39,43.19,43.19,0,0,0-7.68-5.55v-8.31h42.14V456.1H495.3V445.65H609.22Z"/><path id="path22252" class="cls-9" d="M622.66,538.54a6.81,6.81,0,0,1,4.9,2,6.5,6.5,0,0,1,2.13,5,7.05,7.05,0,0,1-7,7,6.7,6.7,0,0,1-4.91-2.07,6.78,6.78,0,0,1-2.06-5,7,7,0,0,1,7-7Z"/><path id="path22254" class="cls-9" d="M571.42,619.39H556.49V714.9H544.77v-34l-.29-.07A28.55,28.55,0,0,1,533.82,687a40.07,40.07,0,0,1-11.65,1.78A33.24,33.24,0,0,1,511,687a22.58,22.58,0,0,1-8.67-5.4,25.82,25.82,0,0,1-5.69-9.24,40,40,0,0,1-2-13.28V619.39H478.81V608.94h92.61Zm-26.65,0H506.18v39a40.72,40.72,0,0,0,.71,8,16.34,16.34,0,0,0,2.55,6,12.16,12.16,0,0,0,4.84,3.83,18.85,18.85,0,0,0,7.46,1.28A25.86,25.86,0,0,0,535,674.18a31.12,31.12,0,0,0,9.81-9.09Z"/><path id="path22256" class="cls-9" d="M609.22,619.39H594.3V714.9H582.64V619.39h-16.2V608.94h42.78Z"/><path id="path22258" class="cls-9" d="M622.66,701.83a6.81,6.81,0,0,1,4.9,2,6.5,6.5,0,0,1,2.13,5,7,7,0,0,1-7,7,6.73,6.73,0,0,1-4.91-2.06,6.82,6.82,0,0,1-2.06-5,7,7,0,0,1,7-7Z"/></g><g id="text21796"><path id="path22261" class="cls-10" d="M571.42,292.8H556.49v95.52H544.84V348.45H507.53v10.16a13.49,13.49,0,0,1-.22,2.28,6.27,6.27,0,0,1-.71,2.27,4.84,4.84,0,0,1-1.42,1.71,3.61,3.61,0,0,1-2.2.64,10,10,0,0,1-3.91-1,32.57,32.57,0,0,1-4.62-2.77,57.05,57.05,0,0,1-4.69-4,46.89,46.89,0,0,1-4.12-4.69,28.9,28.9,0,0,1-2.92-4.83,10.72,10.72,0,0,1-1.13-4.48,4.74,4.74,0,0,1,2.13-4.33,10.26,10.26,0,0,1,5.61-1.36h6.9v-39a8,8,0,0,0-1.78-5.62,5.78,5.78,0,0,0-4.48-2,6.63,6.63,0,0,0-5,2.21,8,8,0,0,0-2,5.61,9.94,9.94,0,0,0,.14,1.57,7.9,7.9,0,0,0,.71,2.13,18,18,0,0,0,1.7,2.63,23.74,23.74,0,0,0,3.06,3l-6.32,7.75a22,22,0,0,1-5.33-3.91,19,19,0,0,1-3.2-4.48,17.69,17.69,0,0,1-1.57-4.4,21.77,21.77,0,0,1-.42-4.05,20.37,20.37,0,0,1,1.13-6.68,18.09,18.09,0,0,1,3.56-6,17.29,17.29,0,0,1,5.83-4.34,19.48,19.48,0,0,1,8.24-1.63,18.66,18.66,0,0,1,7.32,1.35,13.77,13.77,0,0,1,5.33,3.91,15.73,15.73,0,0,1,3.27,6,25,25,0,0,1,1.14,7.81v38h37.31V282.36h26.58Z"/><path id="path22263" class="cls-10" d="M609.22,292.8H594.3v95.52H582.64V292.8h-16.2V282.36h42.78Z"/><path id="path22265" class="cls-10" d="M622.66,375.24a6.85,6.85,0,0,1,4.9,2,6.54,6.54,0,0,1,2.13,5,7,7,0,0,1-7,7,6.69,6.69,0,0,1-4.91-2.06,7,7,0,0,1,4.91-11.94Z"/><path id="path22267" class="cls-10" d="M609.22,456.1H594.3v95.51H582.64V489.93H559.76l-.07.28c.57.66,1.42,1.68,2.56,3.06a32.57,32.57,0,0,1,3.41,5,35.91,35.91,0,0,1,3,6.68,24.19,24.19,0,0,1,1.28,8,25.73,25.73,0,0,1-1.49,8.6,22.93,22.93,0,0,1-4.33,7.6,21.26,21.26,0,0,1-7.25,5.41,24,24,0,0,1-10.24,2.06,27.73,27.73,0,0,1-10.59-2,34.52,34.52,0,0,1-8.74-5.48,43.34,43.34,0,0,1-7-7.88,75.08,75.08,0,0,1-5.62-9.46,109.48,109.48,0,0,1-4.26-10.16c-1.19-3.46-2.2-6.75-3.06-9.88s-1.54-6.09-2.06-8.74-.92-4.85-1.21-6.61l10.52-2.06a153.56,153.56,0,0,0,5.69,22.46,79.44,79.44,0,0,0,7.53,16.06,33.33,33.33,0,0,0,8.88,9.74,17.6,17.6,0,0,0,10,3.19,11.08,11.08,0,0,0,6-1.42,11.59,11.59,0,0,0,3.56-3.55,13.29,13.29,0,0,0,1.7-4.34,18.72,18.72,0,0,0,.5-3.9,17.77,17.77,0,0,0-1.21-6.19,26.68,26.68,0,0,0-3.41-6.61,34.59,34.59,0,0,0-5.54-6.39,43.19,43.19,0,0,0-7.68-5.55v-8.31h42.14V456.1H495.3V445.65H609.22Z"/><path id="path22269" class="cls-10" d="M622.66,538.54a6.81,6.81,0,0,1,4.9,2,6.5,6.5,0,0,1,2.13,5,7.05,7.05,0,0,1-7,7,6.7,6.7,0,0,1-4.91-2.07,6.78,6.78,0,0,1-2.06-5,7,7,0,0,1,7-7Z"/><path id="path22271" class="cls-10" d="M571.42,619.39H556.49V714.9H544.77v-34l-.29-.07A28.55,28.55,0,0,1,533.82,687a40.07,40.07,0,0,1-11.65,1.78A33.24,33.24,0,0,1,511,687a22.58,22.58,0,0,1-8.67-5.4,25.82,25.82,0,0,1-5.69-9.24,40,40,0,0,1-2-13.28V619.39H478.81V608.94h92.61Zm-26.65,0H506.18v39a40.72,40.72,0,0,0,.71,8,16.34,16.34,0,0,0,2.55,6,12.16,12.16,0,0,0,4.84,3.83,18.85,18.85,0,0,0,7.46,1.28A25.86,25.86,0,0,0,535,674.18a31.12,31.12,0,0,0,9.81-9.09Z"/><path id="path22273" class="cls-10" d="M609.22,619.39H594.3V714.9H582.64V619.39h-16.2V608.94h42.78Z"/><path id="path22275" class="cls-10" d="M622.66,701.83a6.81,6.81,0,0,1,4.9,2,6.5,6.5,0,0,1,2.13,5,7,7,0,0,1-7,7,6.73,6.73,0,0,1-4.91-2.06,6.82,6.82,0,0,1-2.06-5,7,7,0,0,1,7-7Z"/></g></g></svg>